<?xml version="1.0" encoding="iso-8859-1"?>
<!-- Uploaded to: SVG Repo, www.svgrepo.com, Generator: SVG Repo Mixer Tools -->
<svg height="800px" width="800px" version="1.1" id="Layer_1" xmlns="http://www.w3.org/2000/svg" xmlns:xlink="http://www.w3.org/1999/xlink" 
	 viewBox="0 0 512 512" xml:space="preserve">
<path style="fill:#11BBA3;" d="M256,196.687c-46.856,0-84.977,38.121-84.977,84.977s38.121,84.977,84.977,84.977
	s84.977-38.121,84.977-84.977S302.857,196.687,256,196.687z M315.515,316.403h-20.728c1.734-8.228,2.854-17.201,3.258-26.722h26.419
	C323.339,299.334,320.215,308.381,315.515,316.403z M196.485,246.925h20.728c-1.734,8.228-2.854,17.201-3.258,26.722h-26.418
	C188.661,263.993,191.785,254.946,196.485,246.925z M273.066,230.892h-34.132c5.16-11.713,11.643-18.171,17.066-18.171
	C261.422,212.721,267.906,219.178,273.066,230.892z M285.21,219.233c6.383,2.999,12.237,6.941,17.374,11.658h-12.278
	C288.793,226.673,287.087,222.777,285.21,219.233z M229.998,273.648c0.463-9.995,1.775-18.951,3.645-26.722h44.715
	c1.87,7.771,3.182,16.727,3.645,26.722H229.998z M282.003,289.681c-0.463,9.995-1.775,18.951-3.645,26.722h-44.715
	c-1.869-7.771-3.182-16.727-3.645-26.722H282.003z M221.695,230.892h-12.278c5.137-4.717,10.99-8.659,17.374-11.658
	C224.914,222.777,223.207,226.673,221.695,230.892z M213.956,289.681c0.404,9.522,1.523,18.494,3.258,26.722h-20.728
	c-4.701-8.022-7.824-17.069-8.948-26.722H213.956z M221.695,332.437c1.512,4.218,3.22,8.115,5.095,11.658
	c-6.383-2.999-12.237-6.941-17.374-11.658H221.695z M238.934,332.437h34.132c-5.16,11.713-11.643,18.171-17.066,18.171
	C250.577,350.608,244.094,344.15,238.934,332.437z M290.305,332.437h12.278c-5.137,4.717-10.99,8.659-17.374,11.658
	C287.087,340.551,288.793,336.655,290.305,332.437z M298.044,273.648c-0.404-9.522-1.523-18.494-3.258-26.722h20.728
	c4.701,8.022,7.824,17.069,8.948,26.722H298.044z"/>
<path style="fill:#DDDAC5;" d="M169.364,355.605l-36.721-90.319c-1.381-3.398-4.891-5.421-8.525-4.921L27.54,273.722
	c-3.247,0.449-5.958,2.917-6.706,6.109c-0.798,3.402,0.769,7.027,3.797,8.776l20.108,11.608L0.979,380.439
	c-1.355,2.484-1.3,5.498,0.144,7.931s4.064,3.924,6.893,3.924H110.63c2.815,0,5.426-1.477,6.874-3.892l20.576-34.294l19.847,11.46
	c2.915,1.682,6.734,1.307,9.272-0.9C169.739,362.458,170.632,358.723,169.364,355.605z"/>
<path style="fill:#C6C19F;" d="M0.979,380.439c-1.355,2.484-1.3,5.498,0.144,7.931s4.064,3.924,6.893,3.924H110.63
	c2.815,0,5.426-1.477,6.874-3.892l14.232-23.721H9.574L0.979,380.439z"/>
<path style="fill:#66BF00;" d="M179.04,376.261H8.017c-3.166,0-6.035,1.863-7.323,4.756s-0.754,6.271,1.364,8.624l76.96,85.511
	c1.52,1.69,3.687,2.654,5.959,2.654h94.063c4.427,0,8.017-3.589,8.017-8.017v-85.511
	C187.056,379.851,183.467,376.261,179.04,376.261z"/>
<path style="fill:#DDDAC5;" d="M383.043,88.824c-2.034-2.756-5.592-3.915-8.86-2.884l-22.143,6.982L322.456,6.462
	c-0.916-2.677-3.176-4.673-5.945-5.251c-2.771-0.581-5.638,0.345-7.551,2.431l-69.325,75.654c-1.903,2.076-2.576,4.998-1.774,7.698
	l11.383,38.34l-21.857,6.891c-3.179,1.003-5.451,3.966-5.597,7.294c-0.151,3.438,1.989,6.668,5.216,7.867l91.398,33.945
	c3.399,1.262,7.328,0.022,9.388-2.96l55.399-80.23C385.137,95.323,385.077,91.58,383.043,88.824z"/>
<path style="fill:#C6C19F;" d="M322.456,6.462c-0.916-2.677-3.176-4.673-5.945-5.251c-2.771-0.581-5.638,0.345-7.551,2.431
	l-69.325,75.654c-1.903,2.076-2.576,4.998-1.774,7.698l7.649,25.764l82.516-90.018L322.456,6.462z"/>
<path style="fill:#66BF00;" d="M322.223,5.861c-1.262-2.903-4.115-4.792-7.281-4.821L199.903,0.011
	c-2.241-0.051-4.447,0.925-5.983,2.601l-63.548,69.35c-2.95,3.22-2.722,8.378,0.495,11.327l63.045,57.77
	c3.221,2.95,8.378,2.722,11.327-0.495L320.782,14.473C322.921,12.138,323.486,8.765,322.223,5.861z"/>
<path style="fill:#DDDAC5;" d="M475.351,466.537l-51.307-88.866c-1.408-2.439-3.992-3.96-6.808-4.007l-39.988-0.672v-22.918
	c0-3.278-2.074-6.301-5.132-7.48c-3.26-1.256-7.066-0.201-9.213,2.558l-59.858,76.96c-2.252,2.895-2.252,6.948,0,9.843l59.858,76.96
	c2.062,2.652,5.738,3.741,8.916,2.665c3.192-1.081,5.429-4.219,5.429-7.587v-23.217l91.354-2.217
	c2.828-0.068,5.412-1.624,6.796-4.091C476.784,472.002,476.766,468.988,475.351,466.537z"/>
<path style="fill:#C6C19F;" d="M475.351,466.537l-51.307-88.866c-1.408-2.439-3.992-3.96-6.808-4.007l-29.181-0.491l60.581,105.871
	l19.967-0.484c2.828-0.068,5.412-1.624,6.796-4.091C476.784,472.002,476.766,468.988,475.351,466.537z"/>
<path style="fill:#66BF00;" d="M510.926,357.132l-47.031-81.46c-2.214-3.834-7.118-5.149-10.951-2.934l-74.055,42.756
	c-3.777,2.182-5.119,7.168-2.934,10.951l85.511,148.11c1.442,2.497,4.098,4.008,6.94,4.008c0.278,0,0.558-0.014,0.839-0.044
	c3.149-0.33,5.807-2.483,6.786-5.494l35.575-109.406C512.31,361.458,512.062,359.1,510.926,357.132z"/>
</svg>